<?xml version="1.0" standalone="no"?>
<!DOCTYPE svg PUBLIC "-//W3C//DTD SVG 20010904//EN"
 "http://www.w3.org/TR/2001/REC-SVG-20010904/DTD/svg10.dtd">
<svg version="1.0" xmlns="http://www.w3.org/2000/svg"
 width="1280.000000pt" height="1280.000000pt" viewBox="0 0 1280.000000 1280.000000"
 preserveAspectRatio="xMidYMid meet">
<g transform="translate(0.000000,1280.000000) scale(0.100000,-0.100000)"
fill="#000000" stroke="none">
<path d="M7474 9830 c-119 -17 -409 -123 -554 -202 -135 -74 -193 -119 -335
-264 -130 -133 -146 -146 -225 -182 -120 -56 -196 -116 -345 -271 -389 -406
-393 -408 -557 -369 -77 18 -122 22 -258 22 -186 0 -306 -17 -460 -66 -204
-65 -279 -111 -471 -290 -154 -144 -274 -279 -343 -386 -31 -49 -56 -77 -79
-87 -17 -7 -59 -26 -92 -40 -33 -14 -105 -56 -160 -92 -130 -87 -376 -332
-620 -618 -99 -115 -231 -271 -295 -345 -145 -170 -409 -436 -519 -524 -166
-132 -320 -222 -515 -300 -249 -101 -393 -79 -556 84 -47 46 -89 100 -110 140
-32 59 -35 72 -34 145 1 183 111 503 230 671 58 82 273 279 341 312 45 22 53
30 49 48 -4 16 4 31 33 57 22 19 49 40 60 47 12 6 21 20 21 32 0 11 16 36 35
54 30 28 34 37 25 53 -5 11 -10 29 -10 40 0 38 -32 101 -62 122 -21 16 -55 24
-116 30 l-86 9 -67 -40 c-180 -107 -317 -232 -458 -419 -210 -279 -327 -524
-376 -786 -22 -117 -16 -308 14 -409 94 -317 323 -532 644 -602 97 -21 305
-22 422 -1 292 53 517 162 800 388 242 193 408 359 775 777 90 102 149 162
159 160 13 -3 16 -20 15 -103 -3 -190 -43 -338 -192 -702 -49 -120 -101 -254
-115 -298 -78 -240 -76 -469 6 -664 l30 -75 -23 -40 c-124 -218 -140 -275
-155 -554 -6 -111 -6 -113 14 -103 40 22 43 -14 16 -173 -39 -226 -33 -255 43
-202 42 28 63 32 110 15 34 -12 55 -4 105 37 35 29 59 30 117 3 25 -11 63 -24
84 -27 22 -4 41 -13 43 -19 8 -23 -41 -36 -129 -36 -72 0 -92 -3 -109 -18 -27
-23 -26 -23 -80 -4 -57 20 -85 13 -136 -37 -28 -28 -54 -43 -80 -47 -28 -5
-41 -13 -50 -34 -7 -15 -19 -39 -26 -54 -18 -40 -41 -36 -45 8 -2 24 8 58 32
108 19 41 40 97 45 125 12 61 20 276 11 276 -16 0 -33 -63 -40 -155 -11 -130
-24 -183 -66 -276 -19 -42 -34 -86 -34 -98 0 -39 28 -79 64 -91 19 -6 53 -24
75 -41 49 -35 52 -35 77 -8 16 18 28 20 86 17 45 -2 73 -9 86 -21 26 -24 49
-21 68 9 24 35 66 55 106 48 73 -12 76 -14 88 -49 6 -19 16 -37 21 -40 5 -3
29 14 53 39 52 54 77 57 116 15 l29 -32 38 30 c21 17 61 42 90 57 28 14 59 36
67 48 20 28 21 117 3 161 -21 49 -87 103 -150 121 -97 28 -129 86 -144 261 -8
100 14 172 73 235 24 26 44 50 44 53 0 3 -20 20 -45 37 -25 17 -45 37 -45 45
0 21 9 19 76 -14 113 -55 226 -65 307 -26 53 25 147 120 184 186 17 30 52 122
78 204 54 174 66 196 154 290 60 64 71 83 120 205 66 165 145 322 183 365 83
95 165 60 312 -134 189 -248 364 -432 496 -519 47 -31 87 -57 89 -59 2 -1 10
-45 17 -96 21 -155 40 -192 163 -321 89 -92 112 -122 130 -171 12 -33 33 -78
46 -100 32 -56 140 -156 270 -252 61 -45 169 -124 240 -177 72 -53 155 -105
185 -117 30 -12 116 -29 191 -39 252 -34 343 -71 437 -177 48 -53 64 -64 105
-73 109 -23 229 -106 267 -184 19 -40 20 -54 14 -145 -11 -161 21 -214 179
-301 86 -47 121 -78 149 -135 36 -70 37 -70 84 -24 41 40 45 42 111 44 37 1
78 -3 90 -8 13 -6 33 -36 52 -79 23 -53 35 -69 48 -66 10 2 39 35 65 73 67 99
62 95 115 89 31 -4 64 0 92 10 42 15 46 15 63 -1 9 -10 24 -36 33 -58 l15 -40
-4 45 c-3 25 -19 77 -37 114 -42 91 -48 148 -20 212 40 91 79 107 131 56 34
-34 50 -87 50 -164 0 -60 -21 -184 -39 -232 -22 -57 0 -38 26 22 14 34 33 64
42 66 9 3 49 8 88 12 72 6 73 6 83 -20 5 -15 10 -39 10 -54 1 -82 43 -60 100
50 23 46 66 123 94 172 49 87 51 93 50 165 0 123 -25 159 -204 296 -146 111
-186 165 -234 310 -14 44 -40 104 -56 133 -40 68 -145 179 -229 240 -95 70
-407 248 -536 305 -240 107 -399 246 -579 505 -45 63 -55 86 -47 96 7 8 44 15
99 19 188 12 365 80 485 187 38 33 72 60 78 60 5 0 19 -16 30 -35 12 -19 28
-35 36 -35 8 0 26 -13 41 -29 19 -21 38 -31 67 -33 30 -2 43 -9 53 -28 20 -38
9 -153 -22 -225 -50 -119 -44 -228 20 -363 44 -92 141 -196 239 -257 74 -46
93 -52 124 -35 12 6 31 5 54 -2 30 -9 43 -8 77 7 29 13 52 16 85 11 32 -4 55
-1 75 9 16 8 43 15 59 15 20 0 35 8 46 23 52 75 137 213 150 245 9 20 31 53
49 72 40 42 65 90 96 185 12 39 40 104 62 147 38 74 101 158 111 148 3 -3 -10
-36 -29 -75 -19 -38 -54 -134 -79 -211 -46 -143 -69 -186 -147 -271 -42 -47
-49 -61 -109 -216 -45 -119 -65 -141 -117 -131 -22 4 -40 1 -57 -10 -17 -12
-36 -14 -64 -10 -22 4 -47 1 -61 -6 -17 -9 -28 -9 -51 0 -24 10 -35 10 -62 -4
-36 -17 -66 -13 -125 18 -75 39 -69 10 11 -47 153 -109 241 -242 294 -446 32
-122 56 -152 138 -177 38 -11 66 -27 92 -54 l37 -40 33 36 c31 34 36 36 76 30
37 -6 53 -14 103 -51 10 -7 28 7 68 50 62 68 81 110 73 167 -8 56 -61 161
-108 210 -42 44 -30 43 -162 22 -75 -12 -94 41 -61 170 23 91 83 210 157 312
36 51 91 144 120 207 30 64 84 167 120 229 78 137 111 219 127 316 14 86 31
101 66 57 13 -16 26 -27 29 -23 3 3 -1 32 -9 64 -14 52 -14 61 -1 81 18 27 56
38 83 24 10 -5 48 -51 83 -101 93 -132 109 -114 23 26 -50 82 -53 102 -21 132
30 29 55 28 97 -3 42 -31 48 -20 21 34 -23 44 -20 67 11 77 29 9 117 -55 201
-148 39 -43 72 -76 75 -74 2 3 -1 21 -8 40 -8 25 -43 65 -111 128 -54 51 -102
100 -105 110 -12 40 54 118 102 118 39 0 135 -62 194 -126 23 -25 44 -43 48
-40 15 15 -31 74 -113 144 -80 70 -90 82 -93 116 -4 47 11 66 54 66 41 0 49
11 23 33 -25 22 -24 36 7 78 57 74 77 135 84 258 l7 115 38 31 37 31 -7 91
c-8 100 3 156 36 173 25 14 24 33 -5 138 -46 165 -45 168 56 182 111 16 176
46 234 106 94 97 164 265 164 395 0 74 -12 87 -90 100 -267 41 -420 138 -548
347 -89 145 -139 195 -238 244 -101 49 -144 93 -190 195 -77 168 -174 279
-353 406 -132 93 -220 173 -293 265 -29 36 -81 89 -117 119 -63 52 -94 69
-294 162 -121 56 -183 99 -297 207 -98 93 -150 126 -257 165 -32 11 -141 61
-243 110 -233 112 -298 129 -474 128 -72 -1 -154 -5 -182 -9z m26 -50 c13 -9
13 -12 -3 -24 -10 -8 -35 -17 -55 -21 -104 -19 -222 -109 -289 -218 -32 -53
-101 -117 -126 -117 -6 0 -19 -7 -29 -17 -26 -23 -23 -79 8 -133 44 -76 39
-89 -92 -292 -89 -137 -142 -208 -214 -283 -105 -109 -141 -157 -189 -252 -34
-68 -37 -96 -20 -171 16 -68 -3 -120 -103 -285 -113 -185 -149 -264 -151 -335
-1 -70 5 -82 46 -82 102 0 176 -158 133 -286 -16 -49 -57 -104 -77 -104 -6 0
-30 14 -54 31 -53 38 -74 30 -107 -39 -21 -43 -27 -48 -78 -62 -69 -18 -121
-68 -172 -165 -65 -126 -83 -201 -83 -355 0 -118 3 -141 22 -182 12 -27 28
-48 36 -48 7 0 23 18 35 39 26 46 83 98 116 107 12 3 40 4 62 2 53 -4 58 -34
11 -65 -67 -42 -125 -164 -162 -342 -13 -59 -12 -73 7 -159 18 -83 19 -103 9
-165 -6 -38 -25 -104 -41 -146 -28 -72 -37 -111 -25 -111 3 0 28 11 55 25 71
36 89 33 162 -30 77 -65 101 -75 182 -75 85 0 158 -24 237 -76 58 -39 71 -44
122 -44 69 0 150 -17 198 -41 72 -36 209 -171 209 -205 0 -8 -13 -23 -30 -32
-16 -9 -32 -27 -35 -39 -10 -43 -33 -55 -90 -48 -54 7 -74 1 -175 -55 -41 -23
-99 -25 -155 -5 -47 17 -58 18 -51 6 12 -18 118 -72 193 -97 77 -26 79 -26
284 -19 195 7 209 6 253 -13 60 -27 86 -69 86 -143 0 -30 6 -63 13 -72 15 -20
284 -136 388 -167 41 -12 98 -38 126 -57 57 -38 130 -121 139 -160 14 -56 -42
-103 -123 -103 -54 0 -83 -18 -113 -70 -36 -62 -80 -90 -143 -90 -48 0 -53 -2
-109 -60 -76 -77 -85 -78 -159 -24 -57 41 -78 72 -87 126 -7 38 -10 42 -53 53
-26 6 -68 25 -95 42 -75 49 -101 55 -214 58 -127 2 -154 14 -255 108 -106 97
-113 99 -263 92 -103 -6 -139 -4 -191 10 -107 28 -185 73 -174 101 4 12 28 15
127 13 143 -3 164 1 270 53 73 36 87 39 145 36 l63 -4 -28 23 c-50 41 -152 86
-206 91 -46 4 -60 0 -143 -43 -82 -42 -96 -47 -134 -40 -57 9 -173 88 -264
180 -108 107 -132 171 -83 220 40 40 86 42 155 6 59 -30 111 -40 111 -22 0 6
-50 40 -112 77 -62 37 -129 83 -150 102 l-38 34 -15 -34 c-35 -85 -44 -243
-20 -343 18 -76 18 -85 0 -85 -8 0 -23 17 -34 38 -94 185 -73 471 54 727 87
175 92 236 35 435 -38 132 -46 225 -30 344 15 118 6 179 -57 366 -41 122 -45
141 -41 205 4 51 14 91 38 145 37 81 52 200 31 237 -8 14 -10 2 -11 -55 0 -82
-21 -136 -66 -171 -38 -30 -68 -27 -98 12 -29 36 -39 30 -51 -32 -11 -59 -45
-121 -71 -127 -33 -8 -39 -2 -69 73 -24 60 -26 76 -20 140 5 55 2 84 -11 127
-10 31 -21 56 -25 56 -3 0 -9 -34 -11 -76 -8 -116 -46 -136 -101 -52 -44 68
-59 135 -52 227 7 72 5 83 -20 140 -23 51 -27 70 -22 119 3 31 8 65 12 75 11
27 -9 20 -27 -10 -33 -57 -41 -145 -35 -369 6 -205 5 -214 -13 -214 -32 0 -98
86 -120 156 -27 90 -41 244 -31 340 9 80 8 110 -3 57 -3 -15 -10 -66 -16 -113
-14 -107 -48 -195 -74 -195 -29 0 -58 65 -63 143 -2 37 -7 78 -9 92 l-6 25
-24 -30 c-38 -47 -60 -118 -84 -268 -12 -76 -33 -184 -46 -240 -23 -93 -25
-119 -23 -287 3 -156 1 -185 -11 -185 -22 0 -45 58 -71 180 -21 96 -24 137
-24 315 l1 205 38 95 c32 79 39 113 46 202 10 120 23 159 93 257 54 76 199
244 277 319 71 69 212 175 323 242 48 29 87 54 87 56 0 1 -24 -4 -52 -11 -29
-8 -107 -19 -173 -25 -208 -19 -241 -34 -380 -170 -294 -288 -302 -296 -376
-410 -41 -63 -137 -209 -215 -325 -167 -250 -186 -293 -185 -421 1 -82 -3
-103 -38 -201 -45 -126 -66 -247 -58 -340 6 -83 17 -94 57 -59 17 14 35 26 40
26 12 0 21 -30 13 -43 -4 -7 -8 -61 -8 -122 0 -121 8 -98 -91 -255 -19 -30
-34 -67 -34 -84 0 -16 -15 -61 -34 -100 -19 -39 -52 -110 -74 -158 -22 -47
-55 -108 -72 -135 -46 -68 -121 -143 -143 -143 -25 0 -20 11 41 102 65 95 95
176 127 331 33 165 44 285 45 482 0 318 45 546 170 870 32 83 65 177 73 210
17 63 38 207 33 213 -2 1 -23 -32 -46 -75 -24 -43 -89 -152 -145 -243 -141
-229 -170 -283 -201 -375 -39 -117 -44 -268 -14 -430 27 -141 33 -343 11 -369
-11 -13 -17 -14 -28 -4 -20 16 -48 74 -63 128 l-13 45 -9 -30 c-5 -17 -6 -139
-3 -275 8 -307 8 -307 -100 -285 -24 5 -35 1 -55 -20 -22 -24 -25 -37 -30
-138 -6 -105 -8 -117 -43 -182 -37 -70 -50 -122 -65 -263 -4 -40 -11 -74 -17
-75 -17 -3 -35 48 -45 129 -22 174 32 407 168 725 95 222 139 382 192 710 48
292 107 516 187 703 18 43 32 80 31 81 -8 8 -281 -231 -311 -272 -20 -27 -105
-116 -190 -198 -84 -83 -236 -244 -338 -360 -315 -359 -433 -474 -637 -618
-62 -44 -117 -88 -122 -98 -6 -10 -10 -32 -10 -50 0 -28 -11 -44 -69 -101
-248 -243 -583 -312 -891 -185 -195 80 -310 195 -407 404 -96 209 -99 465 -7
743 51 152 187 403 303 558 144 190 450 422 558 422 131 0 211 -155 104 -200
-43 -17 -77 -6 -89 30 -6 16 -17 30 -25 30 -19 0 -83 -44 -128 -87 -28 -27
-41 -33 -61 -28 -21 5 -33 -1 -69 -40 -24 -26 -94 -92 -156 -146 -117 -105
-164 -165 -183 -239 -7 -25 -36 -80 -66 -122 -110 -155 -156 -294 -158 -478
-1 -110 0 -118 31 -180 17 -36 46 -101 63 -145 59 -149 125 -227 227 -265 63
-23 140 -26 169 -6 19 13 28 12 85 -11 54 -22 73 -25 130 -19 163 15 416 118
614 251 293 196 469 370 922 911 389 465 522 590 818 769 129 77 168 113 280
255 45 58 134 155 197 215 318 309 615 428 980 395 231 -21 248 -24 248 -50 0
-14 7 -20 23 -20 28 0 209 88 263 128 23 16 116 110 206 209 192 206 283 288
405 360 179 105 225 139 299 220 172 189 410 327 704 408 100 28 101 28 120
15z m835 -400 c52 -26 44 -45 -28 -69 -111 -37 -111 -46 1 -43 155 5 284 -32
418 -119 83 -54 194 -154 194 -174 0 -8 -26 -15 -72 -20 -72 -7 -133 -30 -158
-60 -11 -13 -10 -19 8 -36 38 -35 25 -58 -55 -98 -24 -12 -43 -25 -43 -29 0
-4 31 -6 68 -4 97 6 182 -18 263 -74 83 -57 118 -65 250 -57 132 7 226 -12
340 -69 44 -22 83 -37 86 -34 3 3 -14 22 -38 43 -87 75 -138 133 -147 165 -30
113 69 65 262 -126 111 -110 204 -221 274 -331 25 -38 97 -124 161 -190 64
-66 172 -186 239 -267 132 -160 194 -216 287 -259 67 -31 234 -79 278 -79 42
0 86 -27 93 -57 11 -43 -12 -131 -57 -220 -45 -90 -61 -108 -85 -99 -18 7 -16
49 6 127 19 67 9 92 -53 127 -35 20 -58 41 -66 60 -11 25 -21 31 -67 40 -111
23 -157 55 -339 237 -131 131 -185 178 -233 204 -35 18 -91 58 -125 88 -83 75
-147 103 -271 119 -55 7 -116 18 -134 24 -49 18 -167 8 -227 -19 -61 -27 -103
-66 -163 -151 -87 -123 -98 -129 -167 -84 -56 37 -75 63 -75 105 0 36 0 36
-50 42 -28 3 -64 15 -79 27 -37 26 -37 26 -78 -10 -43 -38 -60 -38 -81 0 -9
16 -22 30 -29 30 -14 0 -128 -117 -176 -180 -32 -44 -34 -45 -89 -45 -76 0
-99 -22 -128 -125 -16 -55 -33 -92 -61 -125 -44 -53 -44 -54 -26 -79 12 -17
15 -17 51 8 71 48 158 56 227 20 21 -10 33 -11 58 -1 61 23 86 -21 56 -99 -19
-49 -56 -84 -90 -84 -12 0 -34 -9 -48 -20 -45 -36 -68 -39 -121 -18 -58 22
-76 18 -96 -25 -17 -36 -58 -48 -80 -23 -7 9 -19 16 -27 16 -19 0 -53 -76 -53
-121 0 -41 16 -58 152 -163 90 -69 138 -121 138 -149 0 -27 -27 -20 -83 21
-71 52 -112 75 -179 102 -32 12 -78 40 -103 62 -85 75 -68 22 26 -78 61 -66
65 -74 73 -165 6 -73 25 -110 99 -186 60 -63 67 -90 20 -78 -39 9 -99 51 -127
88 -33 42 -43 74 -55 162 -8 57 -15 74 -37 93 -55 48 -105 -2 -71 -73 16 -33
16 -37 0 -70 -15 -31 -15 -43 -4 -98 7 -34 26 -93 42 -131 34 -80 27 -104 -18
-70 -66 49 -113 197 -113 356 0 71 5 108 16 130 24 46 -6 31 -32 -16 -46 -81
-38 -260 22 -501 18 -76 34 -152 34 -167 0 -22 10 -34 52 -63 29 -19 56 -35
60 -35 5 0 8 11 8 24 0 23 49 90 124 169 25 28 28 28 51 13 32 -21 47 -20 78
5 39 30 93 36 117 14 31 -28 24 -52 -21 -82 -23 -16 -53 -36 -68 -45 -14 -10
-38 -18 -53 -18 -16 0 -28 -5 -28 -10 0 -6 -21 -31 -47 -56 l-47 -46 53 -48
53 -49 -18 -31 c-15 -25 -16 -34 -6 -50 6 -11 12 -27 12 -35 0 -17 -25 -21
-35 -5 -4 6 -15 4 -29 -5 -13 -9 -31 -13 -40 -9 -13 5 -16 -1 -16 -40 0 -58
-20 -72 -111 -79 -50 -3 -92 -16 -181 -56 -108 -47 -168 -63 -168 -43 0 5 32
29 70 53 65 40 82 57 63 60 -5 1 -79 4 -166 8 -86 3 -158 10 -160 16 -8 33
258 50 408 26 38 -7 86 -9 107 -6 l38 7 0 54 c0 45 -4 56 -22 68 -68 43 -234
60 -357 36 -53 -10 -80 -3 -68 17 3 4 28 17 56 28 28 11 50 24 48 30 -6 16
-88 44 -133 44 -23 1 -63 -8 -89 -20 -36 -16 -50 -18 -59 -9 -8 8 -4 16 17 32
33 24 35 38 5 38 -13 0 -30 5 -38 10 -13 9 -12 13 5 26 16 13 42 15 136 12
l115 -4 120 -57 c96 -46 129 -57 169 -57 l50 0 -40 35 c-51 44 -131 85 -166
85 -14 0 -32 7 -39 16 -8 8 -29 22 -49 30 -39 17 -203 59 -269 69 -26 4 -41
12 -39 18 10 28 252 -7 400 -57 71 -25 97 -30 97 -20 0 8 -27 71 -59 141 -75
161 -91 221 -98 358 -7 140 11 215 101 427 65 153 92 236 84 259 -2 7 -14 -4
-26 -25 -25 -43 -45 -53 -77 -38 -42 19 -75 75 -89 151 -9 44 -25 88 -42 114
-41 62 -39 109 7 152 53 48 105 54 173 21 41 -20 58 -36 79 -73 29 -54 30 -53
46 62 15 111 63 207 139 276 72 67 134 98 293 144 68 21 147 48 174 61 53 26
121 81 111 91 -3 4 -61 -22 -129 -56 -109 -55 -128 -62 -172 -59 -69 4 -71 25
-7 89 65 64 49 63 -29 -3 -127 -108 -199 -155 -219 -143 -16 10 -12 45 11 105
42 111 93 195 164 268 138 141 9 57 -148 -97 -74 -73 -91 -96 -113 -153 -27
-72 -37 -81 -95 -92 -54 -10 -86 -40 -126 -120 -19 -39 -40 -74 -46 -78 -35
-22 -60 44 -61 157 0 116 53 297 112 384 53 78 34 75 -31 -4 -26 -33 -54 -63
-62 -68 -24 -13 -54 2 -71 35 -8 16 -18 28 -20 25 -3 -2 -22 -72 -44 -154 -43
-166 -67 -233 -105 -293 -27 -42 -50 -51 -59 -22 -25 84 -33 328 -16 442 12
75 70 268 105 346 l24 54 -23 0 c-34 0 -99 -61 -134 -127 -33 -63 -86 -239
-128 -430 -32 -140 -37 -299 -15 -466 8 -59 11 -110 8 -114 -17 -17 -78 71
-98 141 -5 17 -13 100 -19 186 -10 141 -13 160 -40 213 -41 79 -39 119 15 287
36 112 45 155 45 211 0 101 18 129 158 236 64 48 163 127 221 176 69 56 125
94 160 108 94 35 106 9 36 -77 -40 -48 -85 -123 -85 -139 0 -3 24 12 53 34 66
49 129 81 242 120 50 18 118 50 153 73 34 22 79 47 100 54 47 18 176 14 217
-6z m1245 -2320 c10 -5 28 -25 40 -44 29 -48 15 -76 -38 -76 -30 0 -43 -7 -73
-40 -32 -35 -42 -40 -80 -40 -39 0 -48 -5 -91 -50 -36 -38 -55 -50 -77 -50
-16 0 -33 5 -36 11 -15 23 121 179 180 209 17 8 49 31 72 52 43 39 70 46 103
28z m-1390 -215 c15 -8 38 -27 49 -41 40 -50 18 -119 -29 -94 -19 10 -20 10
-12 -7 6 -10 24 -31 41 -47 l31 -30 30 22 c37 28 56 28 70 1 16 -30 -4 -74
-41 -89 -17 -7 -48 -10 -72 -7 -107 14 -219 240 -145 291 28 20 41 20 78 1z
m1361 -182 c33 -39 4 -143 -62 -217 -41 -47 -126 -88 -182 -88 -118 0 -195
115 -127 188 35 37 66 32 90 -16 24 -46 45 -60 94 -60 35 0 76 27 76 50 0 13
-6 13 -30 0 -23 -13 -47 -4 -55 21 -9 27 11 57 43 64 16 3 44 21 62 40 37 38
70 44 91 18z m-957 -109 l34 -35 39 25 c35 24 45 25 101 20 114 -12 107 -57
-10 -68 -67 -7 -74 -10 -114 -52 -24 -24 -47 -44 -52 -44 -12 0 -37 30 -45 53
-12 32 -27 8 -27 -42 0 -34 -6 -56 -21 -75 -17 -22 -20 -35 -15 -68 9 -52 -10
-81 -62 -96 -49 -15 -55 -22 -77 -96 -21 -68 -15 -87 34 -97 17 -4 41 -15 53
-25 17 -16 37 -19 122 -20 108 -1 193 -20 210 -47 17 -27 -2 -34 -114 -45 -87
-8 -110 -8 -135 4 -28 14 -31 14 -52 -10 -29 -34 -49 -33 -68 4 -17 33 -69 70
-97 70 -10 0 -23 -9 -30 -20 -19 -30 -36 -24 -54 18 -19 45 -21 120 -4 153 7
13 40 53 73 89 105 115 130 195 82 260 -14 19 -25 44 -25 57 0 20 28 45 47 42
22 -4 32 3 42 30 15 34 43 49 93 50 30 1 44 -6 72 -35z m1242 -59 c17 -26 20
-16 -35 -120 -12 -21 -21 -53 -21 -71 0 -36 -16 -53 -74 -74 -28 -11 -46 -25
-57 -48 -34 -67 -61 -77 -132 -47 -20 8 -58 17 -84 20 -120 14 -243 79 -227
120 11 29 51 37 92 19 41 -18 154 -21 195 -5 14 6 36 24 48 40 12 17 39 36 58
42 23 7 59 36 99 80 72 78 108 90 138 44z m-892 -18 c10 -7 17 -22 14 -33 -2
-15 -14 -20 -56 -24 -48 -5 -56 -10 -110 -67 -66 -70 -105 -98 -127 -89 -44
17 23 156 98 201 32 19 56 25 103 25 34 0 68 -6 78 -13z m31 -90 c32 -27 26
-54 -14 -63 -63 -13 -110 -37 -146 -74 -41 -42 -78 -52 -89 -24 -7 18 -4 25
42 81 43 53 117 103 153 103 15 0 40 -10 54 -23z m-4507 -49 c6 -7 14 -29 19
-48 8 -29 17 -38 51 -50 61 -23 81 -48 89 -109 4 -38 19 -75 55 -134 63 -104
66 -107 165 -174 61 -42 107 -85 175 -165 100 -118 121 -159 96 -184 -14 -14
-21 -8 -68 53 -81 103 -113 135 -265 263 -179 151 -209 170 -255 170 -73 0
-180 -91 -263 -222 -19 -31 -38 -35 -57 -13 -17 20 18 123 66 194 52 78 64
112 64 191 0 77 7 97 51 148 16 18 29 43 29 56 0 36 26 49 48 24z m4576 -49
c10 -15 31 -24 66 -30 66 -10 78 -21 86 -75 5 -36 14 -51 42 -72 69 -53 72
-58 66 -106 -4 -24 -1 -59 6 -80 l12 -36 182 0 c261 0 406 -21 524 -77 51 -24
70 -53 34 -53 -11 0 -62 9 -115 20 -226 47 -601 67 -657 35 -43 -24 -79 -18
-121 20 -22 19 -46 35 -55 35 -9 0 -37 -21 -63 -46 -72 -73 -81 -77 -135 -62
l-46 12 -31 -37 c-37 -45 -72 -48 -77 -6 -2 20 9 38 54 82 40 41 54 62 50 74
-17 44 -18 99 -2 112 21 18 20 42 -5 90 -22 43 -19 60 20 95 41 37 15 51 -29
16 -53 -42 -68 -15 -18 32 76 71 182 99 212 57z m-820 -513 c14 -19 26 -39 26
-45 0 -35 -115 -57 -140 -26 -17 20 -4 35 32 35 27 0 30 2 24 25 -14 55 20 60
58 11z m474 -28 c5 -26 -34 -40 -112 -42 -59 -1 -71 2 -74 16 -6 28 45 48 118
45 52 -2 65 -5 68 -19z m956 -8 c92 -23 213 -85 279 -141 48 -42 58 -59 33
-59 -8 0 -97 42 -198 93 -101 52 -193 96 -205 100 -28 6 -31 27 -5 27 11 0 53
-9 96 -20z m-362 -40 c40 -40 48 -76 16 -74 -24 2 -98 66 -98 86 0 15 12 25
34 27 4 1 26 -17 48 -39z m-1242 -56 c0 -9 -28 -44 -63 -78 -64 -65 -120 -101
-137 -91 -16 10 20 62 69 103 98 81 131 98 131 66z m1550 -16 c56 -31 220
-186 220 -207 0 -6 -11 -11 -24 -11 -16 0 -54 27 -112 80 -49 45 -113 97 -141
116 -29 19 -53 39 -53 45 0 19 57 8 110 -23z m-5170 0 c0 -13 -11 -47 -25 -76
-55 -118 -18 -124 62 -11 64 91 90 113 113 99 17 -11 18 -9 -47 -104 -17 -26
-50 -95 -74 -154 -78 -197 -122 -272 -160 -272 -9 0 -19 6 -22 13 -3 8 -1 76
3 153 11 176 35 259 98 342 28 37 52 42 52 10z m5077 -96 c85 -79 193 -201
193 -218 0 -8 -7 -14 -15 -14 -23 0 -275 249 -275 271 0 34 33 20 97 -39z
m-1198 29 c22 -22 27 -45 37 -176 13 -169 12 -190 -12 -193 -24 -3 -98 73
-139 143 -52 91 -53 194 -2 230 31 22 93 19 116 -4z m1033 -35 c95 -79 155
-164 126 -182 -14 -9 -233 210 -224 225 13 20 31 12 98 -43z m-844 -3 c22 -22
36 -27 79 -27 44 -1 53 2 55 18 7 49 71 42 99 -10 9 -17 18 -22 28 -18 66 29
118 5 107 -50 -9 -44 -53 -106 -75 -106 -11 0 -29 14 -41 30 -20 28 -23 29
-43 15 -28 -19 -46 -19 -69 2 -17 15 -19 15 -36 0 -24 -22 -41 -21 -64 0 -19
17 -20 16 -37 -6 -11 -14 -25 -22 -37 -19 -24 4 -84 104 -84 139 0 61 70 80
118 32z m602 -68 c38 -20 46 -52 31 -133 -15 -79 -42 -135 -89 -184 -39 -41
-62 -47 -82 -22 -11 12 -11 27 -1 80 9 43 11 93 6 149 -6 76 -5 85 14 104 25
25 79 28 121 6z m-1737 -124 c-1 -50 -7 -71 -28 -102 -26 -36 -27 -41 -15 -88
20 -83 -6 -94 -77 -31 -25 22 -49 40 -54 40 -19 0 -19 42 1 79 11 22 20 56 20
75 0 42 12 51 41 34 19 -12 24 -9 52 25 45 55 62 46 60 -32z m1283 -69 c6 -4
15 -18 19 -32 4 -14 18 -36 31 -50 21 -23 22 -30 13 -63 -5 -21 -9 -54 -7 -75
l3 -37 22 41 c28 53 108 124 140 124 17 0 29 -10 41 -31 9 -18 36 -54 60 -81
23 -27 42 -53 42 -58 0 -47 -81 -140 -148 -168 -106 -45 -217 -37 -287 20 -49
41 -85 118 -85 183 0 64 44 158 94 203 39 34 44 36 62 24z m678 -53 c32 -25
33 -42 3 -66 -22 -17 -36 -40 -73 -115 -8 -18 -19 -40 -23 -48 -12 -22 -60
-25 -67 -5 -7 18 55 153 80 174 9 7 16 23 16 35 0 21 17 46 31 46 3 0 18 -9
33 -21z m-860 -131 c20 -107 31 -148 47 -186 30 -69 20 -133 -25 -164 -56 -39
-146 82 -146 195 0 46 19 89 61 140 35 42 57 47 63 15z m638 -70 c23 -19 30
-98 14 -153 -14 -46 -64 -132 -100 -172 -26 -30 -47 -29 -85 3 -47 39 -42 67
33 168 36 47 68 96 72 108 7 24 33 58 44 58 3 0 13 -6 22 -12z m-5933 -184
c30 -38 28 -101 -4 -145 -45 -63 -57 -92 -66 -162 -11 -85 -35 -132 -70 -132
-23 0 -24 2 -21 70 7 165 49 322 101 374 27 27 35 26 60 -5z m5429 -56 c7 -9
45 -13 131 -11 130 1 153 -6 132 -46 -15 -27 -44 -34 -99 -25 -26 4 -72 6
-102 5 -44 -2 -61 2 -83 19 -29 23 -34 39 -15 58 15 15 23 15 36 0z m-225
-121 c14 -21 21 -23 81 -19 56 4 67 2 72 -13 12 -30 -22 -45 -105 -45 -79 0
-111 15 -111 51 0 51 36 66 63 26z m747 -28 c0 -30 -117 -149 -146 -149 -13 0
-51 18 -85 40 -34 22 -70 40 -79 40 -9 0 -20 3 -23 7 -14 13 16 32 68 44 49
11 56 10 88 -10 50 -30 80 -27 118 14 38 40 59 45 59 14z m-2617 -518 c14 -5
52 -34 85 -64 74 -66 110 -77 244 -77 97 0 109 -2 164 -30 59 -30 204 -157
204 -178 0 -23 -28 -12 -86 34 -85 67 -107 74 -232 74 -83 0 -133 6 -205 24
-108 28 -137 41 -224 103 -51 36 -63 50 -63 72 0 15 5 32 12 39 14 14 67 16
101 3z m-2800 -456 c7 -33 4 -52 -15 -99 -13 -33 -29 -61 -35 -63 -7 -3 -21
13 -31 34 -46 89 -21 179 46 171 23 -2 28 -10 35 -43z m-204 -9 c21 -46 25
-98 8 -139 -9 -20 -23 -37 -31 -37 -24 0 -88 111 -81 140 18 74 76 94 104 36z
m5935 -6 c48 -58 55 -165 13 -207 -13 -13 -20 -8 -57 41 -50 66 -63 129 -36
171 22 33 49 32 80 -5z m-6162 3 c10 -9 18 -23 18 -32 0 -25 -83 -141 -101
-141 -34 0 -40 107 -9 158 22 37 61 43 92 15z m-268 -25 c7 -21 3 -38 -20 -87
-33 -69 -53 -75 -87 -29 -18 24 -19 32 -8 68 16 54 45 82 79 78 18 -2 30 -11
36 -30z m6210 -10 c26 -37 19 -178 -8 -178 -7 0 -30 18 -51 40 -37 37 -40 45
-40 97 0 51 3 59 24 69 28 15 52 6 75 -28z m-104 -488 c11 -6 31 -30 45 -54
21 -35 25 -56 25 -117 0 -83 -10 -128 -47 -211 -29 -65 -48 -74 -58 -25 -4 17
-24 71 -46 118 -45 99 -56 161 -40 212 25 76 70 104 121 77z m-670 -78 c38
-39 46 -96 26 -192 -25 -120 -106 -273 -132 -248 -2 3 -20 51 -39 107 -53 156
-43 266 31 331 44 38 77 38 114 2z m-361 -32 c36 -64 32 -115 -15 -235 -52
-132 -66 -134 -111 -15 -18 47 -32 103 -32 125 -1 77 67 180 113 173 12 -2 31
-21 45 -48z"/>
<path d="M5201 7952 c-28 -26 -51 -53 -51 -59 0 -6 20 -21 45 -33 26 -13 52
-34 60 -51 24 -46 54 -67 110 -79 61 -13 89 -38 125 -113 25 -51 25 -52 68
-50 95 4 152 47 152 115 0 24 -4 27 -47 34 -50 7 -84 34 -145 116 -18 24 -53
49 -103 73 -43 20 -84 48 -97 65 -31 42 -57 38 -117 -18z"/>
<path d="M9030 8466 c70 -15 102 -33 98 -54 -2 -12 -15 -18 -43 -20 -22 -2
-44 -7 -48 -12 -15 -14 149 -24 354 -22 141 1 211 -2 250 -12 30 -8 55 -13 57
-11 2 2 -26 24 -62 50 -107 76 -135 82 -416 88 -205 4 -236 3 -190 -7z"/>
<path d="M9082 6128 c6 -16 36 -34 44 -25 9 9 -15 37 -33 37 -8 0 -13 -5 -11
-12z"/>
<path d="M9182 5988 c2 -12 10 -23 18 -23 22 0 19 39 -3 43 -15 3 -18 -1 -15
-20z"/>
<path d="M6070 4045 c0 -20 71 -138 140 -235 89 -126 144 -187 205 -231 22
-16 63 -62 90 -101 77 -111 106 -122 315 -126 l165 -3 -32 20 c-17 11 -34 29
-38 41 -7 22 17 70 36 70 27 0 83 -36 100 -64 25 -41 24 -63 -3 -72 l-21 -6
24 -13 c29 -16 39 -11 39 21 0 30 17 31 71 3 47 -24 74 -19 66 12 -4 13 2 28
15 41 11 11 16 23 12 28 -5 4 -42 37 -82 73 -91 83 -145 104 -315 123 -145 16
-274 54 -375 111 -62 34 -338 248 -376 291 -18 21 -36 29 -36 17z m1085 -567
c30 -14 55 -55 55 -93 0 -32 -30 -34 -78 -5 -46 28 -61 64 -37 90 21 23 25 24
60 8z"/>
<path d="M8730 2573 c0 -36 2 -38 29 -23 28 14 34 39 9 32 -11 -3 -24 1 -29 9
-6 10 -9 4 -9 -18z"/>
</g>
</svg>
